<svg id="Layer_1" data-name="Layer 1" xmlns="http://www.w3.org/2000/svg" viewBox="0 0 500 814.45"><defs><style>.cls-1{fill:#252525;}.cls-2{fill:#fff;}.cls-3{fill:#f0a91f;}.cls-4{fill:#177ebc;}.cls-5{fill:#e13c37;}</style></defs><path class="cls-1" d="M332.62,308.76V648A164,164,0,0,1,250.5,790.09,164,164,0,0,0,496.85,648V166.93Z"/><path class="cls-2" d="M332.62,308.79h0V166.43A164,164,0,0,0,250.5,24.35a164,164,0,0,0-82.11,142.08V450.62Z"/><path class="cls-3" d="M250.5,790.1A164,164,0,0,0,332.62,648V308.77L168.39,450.61V648A164,164,0,0,0,250.5,790.1Z"/><path class="cls-4" d="M332.64,2.17a163.22,163.22,0,0,0-82.12,22.15A164,164,0,0,1,332.64,166.4V308.76h0L496.88,166.93v-.53A164.24,164.24,0,0,0,332.64,2.17Z"/><path class="cls-5" d="M168.51,648V166.43A164,164,0,0,1,250.63,24.34,164,164,0,0,0,4.27,166.43V648A164,164,0,0,0,250.63,790.11,164,164,0,0,1,168.51,648Z"/></svg>